<svg width="96" height="68" fill="none" xmlns="http://www.w3.org/2000/svg"><g clip-path="url(#clip0)" fill="#000"><path d="M75.8 47.478c-1.884-3.865-8.624-9.228-15.136-14.411-3.632-2.889-7.064-5.62-9.252-7.772a2.023 2.023 0 00-2.092-.46c-1.348.48-2.18.85-2.836 1.137-1 .44-1.336.59-2.684.724a2.005 2.005 0 00-1.464.862c-2.828 4.16-5.756 3.805-7.712 3.16-.624-.205-.736-.469-.796-.72-.42-1.728 1.688-5.75 4.42-8.438 6.5-6.398 9.852-8 16.932-4.887 8.032 3.534 16.08 6.3 16.16 6.328 1.052.358 2.184-.185 2.548-1.212a1.964 1.964 0 00-1.232-2.507c-.08-.027-7.968-2.739-15.84-6.206-9.172-4.033-14.204-1.377-21.392 5.698-2.736 2.692-6.452 8.138-5.492 12.133.412 1.7 1.628 2.959 3.436 3.545 4.532 1.472 8.668.063 11.748-3.959 1.272-.192 1.964-.476 3.004-.936.376-.165.816-.358 1.4-.59 2.288 2.113 5.376 4.572 8.628 7.158 5.88 4.678 12.548 9.983 14.048 13.053.74 1.515-.056 2.503-.596 2.955-.792.669-1.876.881-2.464.476a2.03 2.03 0 00-2.16-.07 1.956 1.956 0 00-.964 1.9c.136 1.251-1.028 1.968-1.532 2.215-1.28.638-2.616.528-3.116.071a2.043 2.043 0 00-2.076-.401 1.971 1.971 0 00-1.28 1.657c-.12 1.29-1.092 2.53-2.36 3.014-.612.228-1.5.366-2.296-.35a2.047 2.047 0 00-1.828-.457 1.986 1.986 0 00-1.404 1.24c-.076.197-.248.669-2.12.669-1.332 0-3.728-.886-4.9-1.65-1.404-.908-10.208-7.37-17.812-13.635-1.068-.885-2.916-2.782-4.548-4.458-1.448-1.488-2.772-2.837-3.452-3.404a2.013 2.013 0 00-2.82.232 1.948 1.948 0 00.236 2.774c.62.516 1.82 1.763 3.144 3.121 1.784 1.834 3.628 3.73 4.868 4.754 7.448 6.135 16.4 12.758 18.184 13.91 1.472.953 4.644 2.29 7.1 2.29 1.972 0 3.488-.444 4.54-1.314 1.408.54 3.008.544 4.548-.047 1.82-.692 3.316-2.09 4.164-3.781 1.576.33 3.38.098 5.02-.713 1.604-.794 2.764-2.01 3.34-3.431 1.592.083 3.232-.472 4.588-1.617 2.296-1.932 2.928-4.939 1.6-7.65z"/><path d="M40 14.874H22c-1.104 0-2 .882-2 1.968 0 1.086.896 1.968 2 1.968h18c1.104 0 2-.882 2-1.968 0-1.086-.896-1.967-2-1.967zM81.66 43.29a2.015 2.015 0 00-2.776-.535l-5.848 3.864a1.95 1.95 0 00-.544 2.73 2.019 2.019 0 002.776.536l5.848-3.864a1.95 1.95 0 00.544-2.731zm-12.416 9.39c-1.432-1.11-7.836-7.56-11.796-11.62A2.018 2.018 0 0054.62 41a1.943 1.943 0 00-.06 2.783c1.028 1.054 10.096 10.353 12.204 11.99a2.01 2.01 0 001.236.422c.588 0 1.176-.26 1.576-.752.684-.85.536-2.09-.332-2.763zm-7.992 3.947c-2.396-1.886-8.416-8.178-9.776-9.634a2.027 2.027 0 00-2.828-.118 1.949 1.949 0 00-.12 2.782c.072.075 7.256 7.706 10.224 10.043a2.031 2.031 0 002.812-.307 1.95 1.95 0 00-.312-2.767zm-7.96 3.963c-2.852-2.365-8.688-8.477-9.828-9.677a2.022 2.022 0 00-2.828-.094 1.948 1.948 0 00-.096 2.782c1.64 1.727 7.224 7.551 10.172 9.999a2.02 2.02 0 002.82-.236 1.948 1.948 0 00-.24-2.774z"/><path d="M23.376 11.479C19.948 8.283 6.24 7.248 2.12 7.009a2.005 2.005 0 00-1.492.53C.228 7.91 0 8.43 0 8.972v35.416c0 1.086.896 1.968 2 1.968h12c.864 0 1.632-.547 1.9-1.358.292-.881 7.184-21.69 8.092-31.922a1.94 1.94 0 00-.616-1.598zM12.54 42.42H4V11.08c6.428.5 13.364 1.586 15.884 2.79-1.06 8.618-5.856 23.93-7.344 28.55zM94 10.939c-15.704 0-24.416 3.955-24.78 4.12-.52.24-.908.685-1.068 1.224-.16.54-.08 1.118.22 1.598 2.472 3.915 10.212 25.661 11.7 30.966A1.995 1.995 0 0082 50.29h12c1.104 0 2-.882 2-1.968V12.906c0-1.09-.896-1.967-2-1.967zm-2 35.417h-8.504C81.6 40.28 76 24.436 72.876 17.889c3.052-1.02 9.608-2.77 19.124-2.991v31.458z"/></g><defs><clipPath id="clip0"><path fill="#fff" d="M0 0h96v68H0z"/></clipPath></defs></svg>