<svg width="97" height="97" fill="none" xmlns="http://www.w3.org/2000/svg"><path d="M48.5 97C21.756 97 0 75.244 0 48.5S21.756 0 48.5 0 97 21.756 97 48.5 75.244 97 48.5 97zm0-92.785C24.083 4.215 4.215 24.083 4.215 48.5c0 24.417 19.868 44.284 44.285 44.284 24.417 0 44.284-19.867 44.284-44.284 0-24.417-19.867-44.285-44.284-44.285z" fill="#fff"/><path d="M66.876 49.967L41.582 75.26a2.11 2.11 0 01-2.98 0 2.11 2.11 0 010-2.98l23.797-23.805-23.801-23.801a2.11 2.11 0 010-2.98 2.118 2.118 0 012.984 0l25.294 25.293a2.11 2.11 0 010 2.98z" fill="#fff"/></svg>