<svg width="97" height="97" fill="none" xmlns="http://www.w3.org/2000/svg"><path d="M48.5 97C75.244 97 97 75.244 97 48.5S75.244 0 48.5 0 0 21.756 0 48.5 21.756 97 48.5 97zm0-92.785c24.417 0 44.284 19.868 44.284 44.285 0 24.417-19.867 44.284-44.284 44.284-24.417 0-44.285-19.867-44.285-44.284 0-24.417 19.868-44.285 44.285-44.285z" fill="#fff"/><path d="M30.124 49.967L55.418 75.26a2.11 2.11 0 002.98 0 2.11 2.11 0 000-2.98L34.601 48.475l23.801-23.801a2.11 2.11 0 000-2.98 2.118 2.118 0 00-2.984 0L30.124 46.986a2.11 2.11 0 000 2.98z" fill="#fff"/></svg>