<svg width="90" height="90" fill="none" xmlns="http://www.w3.org/2000/svg"><g clip-path="url(#clip0)" fill="#fff"><path d="M85.851 86.485h-3.855v-55.98a4.73 4.73 0 00-4.725-4.726h-8.618a4.73 4.73 0 00-4.725 4.726v55.98h-9.79V55.868a4.73 4.73 0 00-4.725-4.725h-8.618a4.73 4.73 0 00-4.725 4.725v30.617h-9.79V70.629a4.73 4.73 0 00-4.725-4.726h-8.618a4.73 4.73 0 00-4.725 4.725v15.857H4.149a1.758 1.758 0 000 3.515H85.85a1.758 1.758 0 100-3.515zm-63.087 0H11.727V70.629c0-.668.543-1.21 1.21-1.21h8.618c.667 0 1.21.542 1.21 1.21v15.856zm27.858 0H39.586V55.868c0-.667.542-1.21 1.21-1.21h8.617c.667 0 1.21.543 1.21 1.21v30.617zm27.858 0H67.443v-55.98c0-.667.543-1.21 1.21-1.21h8.618c.667 0 1.21.543 1.21 1.21v55.98zm3.512-84.636A1.752 1.752 0 0080.147.004C80.12.003 80.091 0 80.062 0H69.427a1.758 1.758 0 100 3.516h6.567L58.617 20.893l-6.553-6.553a1.758 1.758 0 00-2.486 0l-31.6 31.6a1.758 1.758 0 102.486 2.486L50.82 18.069l6.553 6.553c.686.686 1.8.686 2.486 0l18.62-18.62v5.943a1.758 1.758 0 003.516 0V1.934c0-.03-.003-.057-.004-.085zM13.296 55.074a1.758 1.758 0 100-3.516 1.758 1.758 0 000 3.516z"/></g><defs><clipPath id="clip0"><path fill="#fff" d="M0 0h90v90H0z"/></clipPath></defs></svg>