<svg width="49" height="49" fill="none" xmlns="http://www.w3.org/2000/svg"><path d="M44.693 5.742h-1.435V4.307A4.311 4.311 0 0038.95 0a4.312 4.312 0 00-4.306 4.307v1.435h-5.743V4.307A4.311 4.311 0 0024.596 0a4.311 4.311 0 00-4.307 4.307v1.435h-5.934V4.307A4.312 4.312 0 0010.05 0a4.312 4.312 0 00-4.307 4.307v1.435H4.307A4.312 4.312 0 000 10.05v34.644A4.312 4.312 0 004.307 49h40.386A4.312 4.312 0 0049 44.693V10.05a4.312 4.312 0 00-4.307-4.307zm-7.177-1.435c0-.792.644-1.436 1.435-1.436.792 0 1.436.644 1.436 1.436v5.742c0 .791-.644 1.435-1.436 1.435a1.437 1.437 0 01-1.435-1.435V4.307zm-14.356 0c0-.792.644-1.436 1.436-1.436.791 0 1.435.644 1.435 1.436v5.742c0 .791-.644 1.435-1.435 1.435a1.437 1.437 0 01-1.436-1.435V4.307zm-14.547 0c0-.792.644-1.436 1.436-1.436.791 0 1.435.644 1.435 1.436v5.742c0 .791-.644 1.435-1.435 1.435a1.437 1.437 0 01-1.436-1.435V4.307zM46.13 44.693c0 .792-.644 1.436-1.436 1.436H4.307a1.437 1.437 0 01-1.436-1.436V20.29H46.13v24.404zm0-27.275H2.87v-7.37c0-.79.644-1.435 1.436-1.435h1.435v1.436a4.312 4.312 0 004.307 4.306 4.312 4.312 0 004.306-4.306V8.613h5.934v1.436a4.312 4.312 0 004.307 4.306 4.312 4.312 0 004.306-4.306V8.613h5.742v1.436a4.312 4.312 0 004.307 4.306 4.312 4.312 0 004.307-4.306V8.613h1.435c.792 0 1.436.644 1.436 1.436v7.369z" fill="#fff"/><path d="M41.822 23.16H7.178c-.793 0-1.436.643-1.436 1.436v17.226c0 .793.643 1.436 1.436 1.436h34.644c.793 0 1.436-.643 1.436-1.436V24.596c0-.793-.643-1.436-1.436-1.436zM14.355 40.387H8.613v-5.742h5.742v5.742zm0-8.614H8.613v-5.742h5.742v5.742zm8.805 8.614h-5.933v-5.742h5.933v5.742zm0-8.614h-5.933v-5.742h5.933v5.742zm8.613 8.614h-5.742v-5.742h5.742v5.742zm0-8.614h-5.742v-5.742h5.742v5.742zm8.614 8.614h-5.742v-5.742h5.742v5.742zm0-8.614h-5.742v-5.742h5.742v5.742z" fill="#fff"/></svg>