<svg width="90" height="90" fill="none" xmlns="http://www.w3.org/2000/svg"><g clip-path="url(#clip0)" fill="#fff"><path d="M86.48 45A1.76 1.76 0 0190 45c0 5.956-1.187 11.8-3.429 17.213A44.994 44.994 0 0176.82 76.82C68.033 85.606 56.516 90 45 90c-11.516 0-23.033-4.394-31.82-13.18C4.393 68.03 0 56.515 0 44.999c0-11.516 4.394-23.033 13.18-31.82C21.967 4.393 33.484 0 45 0c11.516 0 23.033 4.394 31.82 13.18a1.76 1.76 0 11-2.488 2.489c-8.1-8.1-18.716-12.15-29.332-12.15s-21.232 4.05-29.332 12.15c-8.1 8.1-12.15 18.715-12.15 29.331s4.05 21.232 12.15 29.332c8.1 8.1 18.716 12.15 29.332 12.15s21.232-4.05 29.332-12.15a41.462 41.462 0 008.995-13.451A41.49 41.49 0 0086.481 45z"/><path d="M31.274 45.608a1.76 1.76 0 012.488-2.488l9.403 9.403 19.06-19.06a1.76 1.76 0 012.488 2.488L44.409 56.255a1.76 1.76 0 01-2.488 0L31.274 45.608z"/></g><defs><clipPath id="clip0"><path fill="#fff" d="M0 0h90v90H0z"/></clipPath></defs></svg>