<svg width="49" height="49" fill="none" xmlns="http://www.w3.org/2000/svg"><path d="M24.404 0C10.916 0 0 10.915 0 24.404 0 37.793 10.817 49 24.404 49 37.846 49 49 37.926 49 24.404 49 10.802 37.778 0 24.404 0zm0 46.148c-11.873 0-21.552-9.765-21.552-21.744 0-11.873 9.679-21.552 21.552-21.552 11.98 0 21.744 9.679 21.744 21.552 0 11.98-9.765 21.744-21.744 21.744z" fill="#fff"/><path d="M26.626 24.404l4.727-4.727a1.436 1.436 0 00-2.03-2.03l-5.742 5.742a1.435 1.435 0 000 2.03l5.742 5.743a1.436 1.436 0 002.03-2.03l-4.727-4.728z" fill="#fff"/><path d="M24.404 5.742c-10.279 0-18.662 8.364-18.662 18.662 0 10.332 8.409 18.854 18.662 18.854 10.288 0 18.854-8.532 18.854-18.854 0-10.247-8.516-18.662-18.854-18.662zm12.21 28.843l-.852-.854a1.436 1.436 0 00-2.03 2.03l.852.854c-2.435 2.046-5.465 3.395-8.744 3.703v-1.367a1.436 1.436 0 10-2.871 0v1.369a15.63 15.63 0 01-8.64-3.619l.94-.94a1.436 1.436 0 00-2.03-2.03l-.933.933a16.015 16.015 0 01-3.628-8.824h1.37a1.436 1.436 0 100-2.871H8.68a15.72 15.72 0 013.596-8.664l.963.964a1.436 1.436 0 002.03-2.03l-.963-.964a15.72 15.72 0 018.664-3.596v1.37a1.436 1.436 0 102.87 0V8.678a16.01 16.01 0 018.825 3.628l-.933.932c-.907.908-.252 2.451 1.016 2.451.367 0 .734-.14 1.015-.42l.94-.94a15.62 15.62 0 013.618 8.64H38.95a1.436 1.436 0 100 2.87h1.367c-.308 3.28-1.657 6.31-3.703 8.746z" fill="#fff"/></svg>