<svg width="37" height="37" fill="none" xmlns="http://www.w3.org/2000/svg"><path d="M34.357 23.785c-.73 0-1.321.592-1.321 1.322v7.928c0 .73-.592 1.322-1.322 1.322H5.286c-.73 0-1.322-.592-1.322-1.322v-7.928a1.321 1.321 0 00-2.643 0v7.928A3.964 3.964 0 005.286 37h26.428a3.964 3.964 0 003.965-3.965v-7.928c0-.73-.592-1.322-1.322-1.322z" fill="#fff"/><path d="M26.01 22.852a1.321 1.321 0 00-1.835 0l-4.354 4.35V1.323a1.321 1.321 0 10-2.643 0v25.881l-4.352-4.351a1.321 1.321 0 00-1.868 1.868l6.607 6.607a1.322 1.322 0 001.869.002l.002-.002 6.607-6.607a1.321 1.321 0 00-.032-1.868z" fill="#fff"/></svg>