<svg width="49" height="41" fill="none" xmlns="http://www.w3.org/2000/svg"><path d="M44.693 0H15.791a4.311 4.311 0 00-4.307 4.307v1.435H10.05a4.312 4.312 0 00-4.307 4.307v1.435H4.307A4.313 4.313 0 000 15.791v20.098a4.314 4.314 0 004.307 4.306h28.71a4.314 4.314 0 004.307-4.306v-1.436h1.627a4.311 4.311 0 004.307-4.307v-1.435h1.435A4.311 4.311 0 0049 24.404V4.307A4.312 4.312 0 0044.693 0zM32.285 14.355L19.682 27.078a1.435 1.435 0 01-2.04 0L5.04 14.355h27.246zM2.871 35.296v-19.05l9.48 9.568-9.48 9.48zm2.03 2.03l9.47-9.47 1.232 1.243a4.304 4.304 0 006.119 0l1.231-1.243 9.47 9.47H4.901zm29.552-2.03l-9.479-9.48 9.48-9.568v19.047zm5.934-5.149c0 .792-.644 1.436-1.436 1.436h-1.627V15.791a4.313 4.313 0 00-4.306-4.307H8.613V10.05c0-.792.644-1.436 1.436-1.436H38.95c.792 0 1.436.644 1.436 1.436v20.098zm5.742-5.742c0 .792-.644 1.436-1.436 1.436h-1.435V10.049a4.311 4.311 0 00-4.307-4.307H14.355V4.307c0-.792.644-1.436 1.436-1.436h28.902c.792 0 1.436.644 1.436 1.436v20.097z" fill="#fff"/></svg>