<svg width="90" height="90" fill="none" xmlns="http://www.w3.org/2000/svg"><path d="M84.917 12.099l-3.846-3.387 3.846-3.386a1.885 1.885 0 00.522-2.095 1.885 1.885 0 00-1.776-1.228H67.748v-.684a1.319 1.319 0 10-2.638 0v17.79L54.276 24.99a4.175 4.175 0 00-.428-1.386l-1.526-2.98a4.173 4.173 0 00-5.61-1.81l-1.18.605a4.141 4.141 0 00-2.068 2.43 4.138 4.138 0 00.257 3.18l1.527 2.981a4.143 4.143 0 001.502 1.632c-.81 1.091-1.195 2.433-1.59 3.827l-.284 1.006a1.319 1.319 0 102.538.718l.284-1.005c.579-2.038.934-3.13 2.064-3.744l2.026-1.1.25-.128c.083-.043.16-.09.24-.138l14.441-7.843a5.583 5.583 0 01-2.663 4.483l-9.39 5.706a.45.45 0 00-.033.02L51.71 33.22a1.32 1.32 0 001.26 2.314l-2.217 6.704-1.621.665-4.409 1.806 1.27-4.49a1.32 1.32 0 00-2.539-.718l-2.007 7.097a1.27 1.27 0 00-.047.287l-.525 9.65c-.016.367.062 1.063-.108 1.422L34.933 70.23h-4.24a4.508 4.508 0 00-4.503 4.503v3.807a4.469 4.469 0 00-1.865-.405H13.56a4.508 4.508 0 00-4.503 4.503v4.724H5.89a1.32 1.32 0 000 2.638h77.772a1.319 1.319 0 100-2.638h-3.43v-34a4.508 4.508 0 00-4.503-4.503h-7.98V25.848a8.226 8.226 0 001.325-7.05 1.317 1.317 0 00-1.325-.968v-2.408h15.914c.798 0 1.495-.482 1.776-1.228a1.885 1.885 0 00-.52-2.095zM45.975 22.66a1.52 1.52 0 01.759-.893l1.18-.604a1.532 1.532 0 012.06.664l1.526 2.98c.357.697.126 1.54-.508 1.967l-.43.233-.907.465a1.532 1.532 0 01-2.059-.665l-1.527-2.98a1.52 1.52 0 01-.094-1.167zm-2.65 47.975a4.479 4.479 0 00-1.449-.386l1.449-1.923v2.309zm6.262-10.629c.635-.76.81-1.648.951-2.363.036-.17.687-3.726.687-3.726s.616.384.68.411a.14.14 0 01.081.116l.718 7.294h-4.42l1.303-1.732zm7.8-7.28l-1.113 9.006h-.92l-.742-7.546a2.779 2.779 0 00-1.554-2.23l-1.326-.842.883-4.898s3.724 4.423 3.81 4.536c.77 1.001 1.034 1.402.963 1.974zM43.14 59.11c.266-.802.39-1.619.37-2.45l.479-8.8 6.1-2.5-1.109 6.144a.626.626 0 00-.008.05l-.918 5.079c-.12.526-.224 1.324-.552 1.757l-8.913 11.84h-.735l5.286-11.12zM11.694 82.636c0-1.028.837-1.864 1.865-1.864h10.766c1.029 0 1.866.836 1.866 1.864v4.725H11.694v-4.725zm17.134 0v-7.904c0-1.029.837-1.865 1.866-1.865H41.46c1.028 0 1.864.836 1.864 1.865v12.629H28.83v-4.725zm48.765-29.274v33.999H63.097v-7.909a1.319 1.319 0 10-2.639 0v7.909H45.963v-21.12c0-1.029.836-1.865 1.864-1.865h10.766c1.029 0 1.865.836 1.865 1.864v6.613a1.32 1.32 0 102.638 0v-19.49c0-1.029.837-1.865 1.866-1.865h10.765c1.029 0 1.866.837 1.866 1.865zm-12.631-4.504a4.508 4.508 0 00-4.503 4.504v8.782a4.464 4.464 0 00-1.53-.392l1.077-8.702c.211-1.696-.654-2.82-1.49-3.907-.089-.115-5.216-6.203-5.216-6.203l3.146-9.51 8.664-5.264v20.692h-.148zm2.786-36.076v-8.14h13.954l-3.005 2.646a1.9 1.9 0 000 2.85l3.005 2.646H67.748z" fill="#fff"/></svg>