<svg width="177" height="177" fill="none" xmlns="http://www.w3.org/2000/svg"><g clip-path="url(#clip0)" fill="#fff"><path d="M148.074 110.378a70.854 70.854 0 0011.708-39.094C159.782 31.977 127.803 0 88.497 0S17.214 31.977 17.214 71.284a70.871 70.871 0 0011.706 39.094L1.037 151.043l31.906-5.949L38.893 177l26.295-38.35a70.97 70.97 0 0023.31 3.917 70.96 70.96 0 0023.309-3.917L138.103 177l5.949-31.906 31.905 5.949-27.883-40.665zM44.531 150.33l-3.245-17.404-17.403 3.246 11.743-17.127a71.747 71.747 0 0019.813 15.378L44.531 150.33zM27.645 71.284c0-33.554 27.299-60.852 60.852-60.852 33.555 0 60.853 27.298 60.853 60.852 0 33.555-27.298 60.853-60.853 60.853-33.553 0-60.852-27.298-60.852-60.853zm108.064 61.642l-3.245 17.404-10.907-15.907a71.767 71.767 0 0019.813-15.378l11.743 17.126-17.404-3.245z"/><path d="M75.79 86.939l-16.96-16.96-7.376 7.376 24.337 24.337 49.753-49.751-7.376-7.376L75.79 86.939z"/></g><defs><clipPath id="clip0"><path fill="#fff" d="M0 0h177v177H0z"/></clipPath></defs></svg>