<svg width="88" height="92" fill="none" xmlns="http://www.w3.org/2000/svg"><path d="M44 28.094h-2.494v1.43c0 .273.11.52.292.701a1 1 0 00.706.297h2.998c.272 0 .52-.115.7-.297a.99.99 0 00.298-.7v-1.431H44zm35.7 32.348l-6.672-2.262-4.35 2.131v2.011c0 1.512.62 2.893 1.623 3.89a5.49 5.49 0 007.781 0 5.5 5.5 0 001.618-3.89v-1.88zm-11.022-3.089l3.599-1.759a1.311 1.311 0 011.093-.105l6.33 2.141v-2.64a2.49 2.49 0 00-.736-1.764 2.472 2.472 0 00-1.759-.736h-6.027c-.685 0-1.31.282-1.764.736a2.492 2.492 0 00-.736 1.764v2.363zM8.3 55.861h11.022V52.49H10.8c-.685 0-1.31.282-1.764.736A2.492 2.492 0 008.3 54.99v.871zm11.022 2.672H8.3v3.79c0 1.51.62 2.892 1.623 3.89a5.49 5.49 0 003.89 1.617c1.512 0 2.893-.62 3.89-1.617a5.5 5.5 0 001.619-3.89v-3.79zm30.191 1.778c-1.834.252-4.762.197-7.211-1.935-.862.494-2.197 1.033-3.81.917v3.03a5.5 5.5 0 001.618 3.89A5.508 5.508 0 0044 67.83a5.49 5.49 0 003.89-1.617 5.482 5.482 0 001.623-3.89V60.31zm-11.021-3.689c1.124.147 2.248-.242 3.1-.972a1.327 1.327 0 011.874.13c1.95 2.248 4.662 2.112 6.047 1.85v-2.64c0-.686-.282-1.31-.735-1.764a2.491 2.491 0 00-1.764-.736h-6.027a2.48 2.48 0 00-1.76.736 2.491 2.491 0 00-.735 1.763v1.633zm-16.504 5.7a8.127 8.127 0 01-1.396 4.56 7.779 7.779 0 014.747 2.249 7.768 7.768 0 012.283 5.503V90.67a1.33 1.33 0 01-1.33 1.33H1.335A1.333 1.333 0 010 90.67v-5a1.333 1.333 0 012.666 0v3.664h2.565v-12.21a1.334 1.334 0 112.671 0v12.21h11.823v-12.21c0-.742.595-1.336 1.335-1.336.736 0 1.33.594 1.33 1.335v12.211h2.566v-14.7a5.122 5.122 0 00-1.502-3.619 5.122 5.122 0 00-3.618-1.501H17.7a8.172 8.172 0 01-7.77 0H7.79a5.104 5.104 0 00-3.618 1.501 5.127 5.127 0 00-1.507 3.619v4.999a1.334 1.334 0 01-2.666 0v-5c0-2.141.877-4.091 2.288-5.503a7.78 7.78 0 014.747-2.247 8.13 8.13 0 01-1.4-4.561v-7.333c0-1.426.579-2.716 1.516-3.648a5.146 5.146 0 013.649-1.517h9.857c.736 0 1.33.595 1.33 1.33v11.168zm60.378 0a8.127 8.127 0 01-1.396 4.56 7.778 7.778 0 014.747 2.249A7.767 7.767 0 0188 74.634V90.67A1.33 1.33 0 0186.67 92H61.714a1.333 1.333 0 01-1.335-1.33v-5a1.333 1.333 0 012.665 0v3.664h2.566v-12.21a1.335 1.335 0 112.67 0v12.21h11.823v-12.21c0-.742.595-1.336 1.336-1.336.736 0 1.33.594 1.33 1.335v12.211h2.565v-14.7a5.121 5.121 0 00-1.502-3.619 5.121 5.121 0 00-3.618-1.501h-2.137a8.173 8.173 0 01-7.77 0H68.17a5.104 5.104 0 00-3.619 1.501 5.126 5.126 0 00-1.507 3.619v4.999a1.334 1.334 0 01-2.666 0v-5c0-2.141.877-4.091 2.288-5.503a7.78 7.78 0 014.748-2.247 8.13 8.13 0 01-1.401-4.561v-7.333c0-1.426.58-2.716 1.516-3.648a5.146 5.146 0 013.649-1.517h6.027a5.15 5.15 0 013.649 1.517 5.154 5.154 0 011.511 3.648v7.333zm-30.187 0a8.16 8.16 0 01-1.396 4.56 7.766 7.766 0 014.742 2.249 7.772 7.772 0 012.288 5.503V90.67A1.33 1.33 0 0156.478 92H31.522a1.33 1.33 0 01-1.33-1.33v-5a1.334 1.334 0 012.666 0v3.664h2.565v-12.21a1.33 1.33 0 011.33-1.336c.741 0 1.336.594 1.336 1.335v12.211h11.827v-12.21a1.33 1.33 0 011.33-1.336c.736 0 1.336.594 1.336 1.335v12.211h2.565v-14.7c0-1.406-.58-2.686-1.506-3.619a5.1 5.1 0 00-3.614-1.501h-2.142a8.157 8.157 0 01-7.765 0h-2.142a5.101 5.101 0 00-3.613 1.501 5.105 5.105 0 00-1.507 3.619v4.999a1.334 1.334 0 01-2.666 0v-5a7.77 7.77 0 012.283-5.503 7.78 7.78 0 014.747-2.247 8.126 8.126 0 01-1.396-4.561v-7.333c0-1.426.58-2.716 1.512-3.648a5.146 5.146 0 013.649-1.517h6.027c1.42 0 2.716.58 3.648 1.517a5.128 5.128 0 011.517 3.648v7.333zM23.494 36.258h15.739c.529 0 .982.307 1.199.75L44 43.192c1.204-2.091 2.414-4.178 3.618-6.264a1.33 1.33 0 011.15-.67h15.778c.393 0 .746.171.993.443l6.566 6.325.741-6.355a1.336 1.336 0 011.003-1.144 16.439 16.439 0 008.29-5.906 16.203 16.203 0 003.195-9.671c0-4.486-1.834-8.558-4.787-11.516-2.959-2.958-7.035-4.792-11.52-4.792H18.973c-4.485 0-8.557 1.834-11.515 4.792C4.5 11.392 2.666 15.47 2.666 19.95c0 3.613 1.19 6.964 3.195 9.67a16.454 16.454 0 008.36 5.932c.565.172.877.625.943 1.19l.73 6.284 6.643-6.395c.257-.247.61-.373.957-.373zm14.973 2.666H23.988l-8.134 7.836a1.31 1.31 0 01-.821.408A1.324 1.324 0 0113.56 46l-.952-8.184a19.157 19.157 0 01-8.885-6.612A18.869 18.869 0 010 19.95c0-5.221 2.137-9.964 5.574-13.4C9.011 3.112 13.753.976 18.974.976h50.052c5.221 0 9.963 2.136 13.405 5.573C85.868 9.986 88 14.73 88 19.95a18.87 18.87 0 01-3.724 11.254 19.143 19.143 0 01-8.88 6.612l-.952 8.164a1.33 1.33 0 01-2.248.826l-8.184-7.882H49.533c-1.461 2.53-2.917 5.06-4.379 7.59a1.364 1.364 0 01-.489.484 1.326 1.326 0 01-1.814-.489l-4.384-7.584zm.378-12.267c-.035-1.517-.827-2.721-1.653-3.976-1.16-1.759-2.369-3.593-2.369-6.546a9.127 9.127 0 012.691-6.486A9.136 9.136 0 0144 6.958a9.15 9.15 0 016.491 2.69 9.145 9.145 0 012.686 6.487c0 2.953-1.21 4.787-2.364 6.546-.826 1.255-1.617 2.46-1.653 3.976l.006 2.868a3.638 3.638 0 01-1.079 2.585 3.637 3.637 0 01-2.585 1.078h-2.999a3.658 3.658 0 01-2.59-1.078 3.633 3.633 0 01-1.073-2.585l.005-2.868zm2.54-1.235h5.236c.292-1.652 1.118-2.902 1.975-4.203.932-1.42 1.915-2.913 1.915-5.084 0-1.8-.73-3.427-1.905-4.602A6.493 6.493 0 0044 9.623a6.49 6.49 0 00-4.6 1.91 6.468 6.468 0 00-1.906 4.602c0 2.172.978 3.663 1.915 5.085.852 1.3 1.678 2.55 1.976 4.202z" fill="#fff"/></svg>