<svg width="24" height="24" fill="none" xmlns="http://www.w3.org/2000/svg"><path d="M14.11 12a2.11 2.11 0 11-4.22 0 2.11 2.11 0 014.22 0z" fill="#fff"/><path d="M15.563 5.625H8.436a2.816 2.816 0 00-2.812 2.813v7.124a2.816 2.816 0 002.813 2.813h7.124a2.816 2.816 0 002.813-2.813V8.439a2.816 2.816 0 00-2.813-2.813zM12 15.515A3.52 3.52 0 018.484 12 3.52 3.52 0 0112 8.484 3.52 3.52 0 0115.516 12 3.52 3.52 0 0112 15.516zm4.031-6.843a.703.703 0 110-1.406.703.703 0 010 1.406z" fill="#fff"/><path d="M17.672 0H6.328A6.335 6.335 0 000 6.328v11.344A6.335 6.335 0 006.328 24h11.344A6.335 6.335 0 0024 17.672V6.328A6.335 6.335 0 0017.672 0zm2.11 15.563a4.223 4.223 0 01-4.22 4.218H8.439a4.224 4.224 0 01-4.22-4.218V8.436a4.224 4.224 0 014.22-4.218h7.124a4.224 4.224 0 014.22 4.218v7.126z" fill="#fff"/></svg>