<svg width="90" height="90" fill="none" xmlns="http://www.w3.org/2000/svg"><g clip-path="url(#clip0)" fill="#020202"><path d="M18.808 33.398c0 14.54 11.829 26.368 26.368 26.368 14.539 0 26.367-11.828 26.367-26.367 0-14.54-11.828-26.368-26.367-26.368-14.54 0-26.368 11.828-26.368 26.367zm26.368-22.851c12.6 0 22.851 10.25 22.851 22.851 0 12.601-10.25 22.852-22.851 22.852-12.6 0-22.852-10.25-22.852-22.852 0-12.6 10.251-22.851 22.852-22.851z"/><path d="M28.897 30.264l6.813 6.714-1.567 9.435a1.757 1.757 0 002.544 1.848l8.489-4.408 8.488 4.408a1.757 1.757 0 002.544-1.848l-1.567-9.435 6.813-6.714a1.756 1.756 0 00-.972-2.99l-9.456-1.423-4.279-8.557a1.757 1.757 0 00-3.144 0l-4.278 8.557-9.456 1.423a1.758 1.758 0 00-.972 2.99zm11.854-1.073a1.758 1.758 0 001.31-.951l3.115-6.23 3.114 6.23c.256.511.745.866 1.31.951l6.883 1.036-4.96 4.886a1.761 1.761 0 00-.5 1.54l1.14 6.868-6.178-3.208a1.753 1.753 0 00-1.62 0l-6.178 3.208 1.141-6.867a1.757 1.757 0 00-.5-1.541l-4.96-4.886 6.883-1.036zm6.183-27.433a1.758 1.758 0 11-3.516 0 1.758 1.758 0 013.516 0z"/><path d="M36.891 1.037C22.104 4.81 11.777 18.119 11.777 33.399c0 9.49 3.99 18.432 10.995 24.765l-10.59 18.664a1.758 1.758 0 001.886 2.589l12.027-2.498 4.227 11.912a1.758 1.758 0 003.183.28l11.67-20.517 11.67 20.517a1.757 1.757 0 003.185-.28l4.226-11.912 12.027 2.498a1.759 1.759 0 001.886-2.59L67.58 58.165A33.294 33.294 0 0078.574 33.4c0-15.28-10.328-28.588-25.114-32.362a1.758 1.758 0 10-.87 3.406C65.82 7.82 75.06 19.727 75.06 33.399c0 16.64-13.514 29.883-29.883 29.883-16.38 0-29.883-13.255-29.883-29.883 0-13.672 9.239-25.58 22.468-28.956a1.759 1.759 0 00-.87-3.406zM32.35 84.034l-3.455-9.735a1.758 1.758 0 00-2.014-1.134l-9.724 2.02 8.38-14.771a33.47 33.47 0 0016.691 6.252L32.35 84.034zm31.12-10.869a1.758 1.758 0 00-2.014 1.134l-3.454 9.735-9.88-17.368a33.472 33.472 0 0016.692-6.252l8.381 14.77-9.726-2.019z"/></g><defs><clipPath id="clip0"><path fill="#fff" d="M0 0h90v90H0z"/></clipPath></defs></svg>