<svg width="49" height="49" fill="none" xmlns="http://www.w3.org/2000/svg"><g clip-path="url(#clip0)"><path d="M47.74 36.14l-6.092-6.09a4.312 4.312 0 00-6.091 0l-2.769 2.768a3.267 3.267 0 01-4.614 0l-12.001-12.01a3.261 3.261 0 010-4.616l2.769-2.768a4.305 4.305 0 00-.002-6.093L12.85 1.26a4.311 4.311 0 00-6.087-.004l-2.22 2.2c-6.056 6.056-6.056 15.91 0 21.966L23.56 44.447c6.07 6.07 15.895 6.07 21.966 0l2.215-2.215a4.312 4.312 0 000-6.091zM8.79 3.29c.559-.56 1.47-.56 2.031.002l6.09 6.07c.561.562.561 1.47 0 2.031l-1.015 1.015-8.117-8.116L8.79 3.29zm16.8 39.127L6.574 23.39a12.623 12.623 0 01-.792-17.035l8.093 8.093a6.129 6.129 0 00.267 8.388l12 12.011h.001a6.128 6.128 0 008.389.268l8.093 8.093a12.599 12.599 0 01-17.035-.792zm20.12-2.215l-1.016 1.015-8.122-8.122 1.015-1.015c.56-.56 1.471-.56 2.031 0l6.091 6.091c.56.56.56 1.47 0 2.03z" fill="#fff"/></g><defs><clipPath id="clip0"><path fill="#fff" d="M0 0h49v49H0z"/></clipPath></defs></svg>