<svg width="49" height="49" fill="none" xmlns="http://www.w3.org/2000/svg"><path d="M24.5 0C15.001 0 7.273 7.728 7.273 17.227c0 3.209.89 6.34 2.572 9.058l13.674 22.036c.262.422.724.679 1.22.679h.012c.5-.004.963-.268 1.22-.698l13.326-22.25a17.206 17.206 0 002.43-8.825C41.727 7.727 33.999 0 24.5 0zm12.333 24.578L24.717 44.807 12.285 24.772a14.338 14.338 0 01-2.16-7.545c0-7.916 6.46-14.375 14.375-14.375 7.916 0 14.365 6.459 14.365 14.375 0 2.595-.71 5.138-2.032 7.351z" fill="#fff"/><path d="M24.5 8.613c-4.75 0-8.613 3.864-8.613 8.614 0 4.719 3.8 8.613 8.613 8.613 4.872 0 8.613-3.946 8.613-8.613 0-4.75-3.864-8.614-8.613-8.614zm0 14.375a5.766 5.766 0 01-5.761-5.761c0-3.167 2.595-5.762 5.761-5.762s5.752 2.595 5.752 5.762c0 3.127-2.519 5.76-5.752 5.76z" fill="#fff"/></svg>