<svg width="90" height="90" fill="none" xmlns="http://www.w3.org/2000/svg"><g clip-path="url(#clip0)" fill="#000"><path d="M53.267 10.824a1.757 1.757 0 10-.824 3.418C66.69 17.677 76.64 30.325 76.64 45c0 17.447-14.194 31.64-31.64 31.64-17.448 0-31.64-14.194-31.64-31.64 0-14.675 9.95-27.323 24.196-30.758a1.758 1.758 0 00-.824-3.418C29.195 12.643 22.366 17 17.504 23.095c-5.011 6.28-7.66 13.855-7.66 21.906 0 19.385 15.771 35.156 35.156 35.156 19.385 0 35.156-15.77 35.156-35.156 0-8.051-2.648-15.627-7.66-21.907C67.634 17 60.805 12.643 53.266 10.825z"/><path d="M88.94 40.772l-2.056-3.837.343-4.743a8.972 8.972 0 00-3.248-7.942l-3.414-2.796-1.343-4.045a9.035 9.035 0 00-6.148-6.5L68.86 9.638l-3.227-3.73a8.996 8.996 0 00-7.731-3.126l-4.374.435L49.23 1.06a8.968 8.968 0 00-8.458 0l-3.836 2.056-4.743-.343a8.971 8.971 0 00-7.943 3.248l-2.795 3.414-4.045 1.342a9.035 9.035 0 00-6.5 6.149L9.637 21.14l-3.73 3.227a8.995 8.995 0 00-3.127 7.73l.436 4.374-2.157 4.3a8.968 8.968 0 000 8.457l2.056 3.837-.343 4.743a8.973 8.973 0 003.249 7.943l3.413 2.795 1.343 4.045a9.034 9.034 0 006.149 6.5l4.213 1.272 3.227 3.73a8.994 8.994 0 007.731 3.126l4.374-.435 4.298 2.156a8.975 8.975 0 008.458 0l3.837-2.055 4.743.343a8.975 8.975 0 007.943-3.249l2.795-3.413 4.046-1.343a9.035 9.035 0 006.499-6.149l1.273-4.213 3.73-3.227a8.995 8.995 0 003.126-7.731l-.436-4.374 2.157-4.299a8.969 8.969 0 000-8.458zm-3.11 6.818a1.783 1.783 0 00-.023.043l-2.395 4.775a1.76 1.76 0 00-.178.963l.487 4.878a5.484 5.484 0 01-1.917 4.716l-4.127 3.57a1.756 1.756 0 00-.532.821l-1.42 4.702a5.51 5.51 0 01-4.015 3.76 1.756 1.756 0 00-.155.044l-4.6 1.527a1.759 1.759 0 00-.807.555l-3.118 3.808a5.472 5.472 0 01-4.936 1.971l-5.284-.382a1.757 1.757 0 00-.957.204l-4.283 2.296a5.458 5.458 0 01-5.203-.033l-4.775-2.395a1.758 1.758 0 00-.963-.178l-4.878.486a5.483 5.483 0 01-4.716-1.916l-3.57-4.127a1.755 1.755 0 00-.822-.533l-4.701-1.42a5.51 5.51 0 01-3.761-4.014 1.764 1.764 0 00-.043-.155l-1.528-4.601a1.755 1.755 0 00-.554-.806L8.248 63.03a5.471 5.471 0 01-1.971-4.935l.382-5.285a1.757 1.757 0 00-.204-.957l-2.296-4.282a5.459 5.459 0 01.032-5.204l2.396-4.775c.149-.297.21-.631.178-.962l-.487-4.878a5.485 5.485 0 011.917-4.717l4.127-3.57c.252-.218.436-.503.532-.821l1.42-4.702a5.51 5.51 0 014.015-3.76 2.1 2.1 0 00.155-.044l4.6-1.527c.316-.105.596-.297.807-.555l3.118-3.808a5.473 5.473 0 014.936-1.971l5.284.382a1.77 1.77 0 00.957-.204L42.43 4.16a5.458 5.458 0 015.203.032l4.775 2.395c.298.15.631.211.963.178l4.878-.486a5.484 5.484 0 014.716 1.916l3.57 4.127c.218.252.503.437.822.533l4.7 1.42a5.51 5.51 0 013.762 4.015c.012.052.026.103.043.154l1.528 4.601c.105.316.297.595.554.806l3.809 3.119a5.47 5.47 0 011.97 4.935l-.381 5.285a1.76 1.76 0 00.203.957l2.296 4.282a5.458 5.458 0 01-.01 5.16z"/><path d="M37.371 35.423a1.756 1.756 0 00-1.587-1.006h-9.287c-.971 0-1.758.786-1.758 1.757v26.608c0 .97.787 1.757 1.758 1.757h9.287c.729 0 1.354-.443 1.62-1.074 1.34.188 2.72.569 4.158.967 2.16.598 4.395 1.217 6.716 1.217h10.147c3.137 0 5.68-1.663 6.8-4.45.546-1.357.642-2.765.323-3.945a6.341 6.341 0 001.45-1.94c.756-1.546.907-3.284.478-4.748.799-.771 1.395-1.79 1.706-2.992.291-1.123.286-2.231.027-3.191 1.586-.933 2.654-2.628 2.654-4.537 0-1.498-.583-2.877-1.642-3.885a5.497 5.497 0 00-3.813-1.501H52.104c-1.086-1.363-1.425-3.213-.806-4.702 1.27-3.056 1.191-5.643-.255-8.388-1.073-2.037-3.959-4.065-6.384-3.719-1.467.21-2.527 1.246-2.839 2.772-.091.45-.116.935-.145 1.497-.072 1.385-.17 3.283-1.367 5.575-.81 1.554-1.081 3.152-1.32 4.562-.342 2.02-.508 2.993-1.617 3.366zm-9.117 2.51h5.772v23.09h-5.772v-23.09zm14.2-5.29c.205-1.209.417-2.46.97-3.52 1.552-2.972 1.683-5.507 1.762-7.022.02-.403.04-.784.08-.976v-.004c.61.009 2.11.832 2.667 1.888.963 1.828.995 3.291.119 5.4-.79 1.902-.73 4.108.05 6.07a1.757 1.757 0 00.244 3.497h18.062c.535 0 1.029.188 1.389.531.25.239.55.666.55 1.34 0 .942-.864 1.757-1.887 1.78l-4.525.098a1.758 1.758 0 00.038 3.515h.039l3.768-.082c.123.348.187 1.012-.072 1.773-.22.648-.811 1.733-2.299 1.733a1.758 1.758 0 000 3.516c.267 0 .529-.017.784-.05a3.44 3.44 0 01-.353 1.639c-.323.66-.96 1.446-2.167 1.446a1.758 1.758 0 000 3.515c.182 0 .362-.008.54-.023a3.314 3.314 0 01-.265 1.22c-.276.663-1.171 2.206-3.522 2.206H48.278c-1.843 0-3.754-.53-5.778-1.09-1.61-.445-3.26-.902-4.958-1.106V38.98c3.958-.717 4.504-3.92 4.913-6.336zM45 13.36a1.758 1.758 0 000-3.516 1.757 1.757 0 100 3.515z"/></g><defs><clipPath id="clip0"><path fill="#fff" d="M0 0h90v90H0z"/></clipPath></defs></svg>