<svg width="217" height="217" fill="none" xmlns="http://www.w3.org/2000/svg"><path d="M77.137 121.215c0 38.56 31.371 69.931 69.931 69.931S217 159.775 217 121.215c0-36.418-27.983-66.417-63.574-69.64V38.568h12.715V25.854h-38.145v12.714h12.715v13.007c-35.592 3.223-63.574 33.222-63.574 69.64zm127.148 0c0 31.549-25.668 57.217-57.217 57.217-31.548 0-57.216-25.668-57.216-57.217s25.668-57.217 57.216-57.217c31.549 0 57.217 25.668 57.217 57.217z" fill="#fff"/><path d="M140.711 76.713v50.859h50.859v-12.715h-38.144V76.713h-12.715zM0 114.857h51.707v12.715H0v-12.715zm12.715-38.144h51.707v12.715H12.715V76.713zm0 76.289h51.707v12.715H12.715v-12.715z" fill="#fff"/></svg>