<svg width="612" height="93" fill="none" xmlns="http://www.w3.org/2000/svg"><g clip-path="url(#clip0)" fill-rule="evenodd" clip-rule="evenodd" fill="#fff"><path d="M160.2 14.75l-34.28 70.8h12.52l6.23-11.64 19.78.07h24.09l5.2 11.57h12.95l-38.1-80.56h-12.74l4.35 9.76zm8.49 47.55c-10.82 0-18.06-.09-18.06-.09l15.41-33.34 17.31 33.43h-14.66zm94.46 23.25v-11h-29.19V30.57h-11.35v55l40.54-.02zm56.46 0v-11h-29.18V30.57h-11.36v55l40.54-.02zm27.81-22.64l17.19-.29h8.07V51.69h-8.07l-17.19.29V41.5h32.48V30.57h-43.3v55h45.31v-11h-34.49V62.91zm104.86-8.67h-21.12l4.67 10.29h5.62v8.81a24.847 24.847 0 01-11.56 2.83c-10.51 0-21-5.74-21-18.15 0-12.41 10.3-18.26 20.91-18.26a26.472 26.472 0 0114.73 4.41l7.33-8.49c-6-4.56-14-6.9-22.08-6.9-16.43-.02-32.43 10.39-32.43 29.06 0 18.67 15.71 29.4 32.37 29.4 8.39 0 16.56-2.65 22.61-7.85V54.24h-.05zm61.88 8.93c8-2.44 12.63-7.64 12.63-16 0-9.55-7.22-16.55-17.3-16.55h-35.45v55h11.14v-22.5h16.17l8.54 13.75 5.37 8.75h14.09l-15.19-22.45zm-13.59-11h-15.39V41.5h22.4c3.82 0 8.06.42 8.06 5.31 0 3.5-2.86 5.3-6.15 5.3l-8.92.06zm99.45 5.52c0 11.89-10.51 18.47-20.91 18.47s-21.12-5.63-21.12-18c0-12.37 10.4-18 21-18 10.4 0 21 5.31 21 17.62l.03-.09zm11.46-.1c0-19.11-15.92-28.77-32.48-28.77-16.56 0-32.47 10.4-32.47 29.08s15.7 29.4 32.37 29.4c16.67 0 32.58-11.13 32.58-29.77v.06zM61.72 91.95H76v-4.37c0-1 .1-1.39.25-2.83.06-.61.14-1.51.22-2.63.08-1.12.35-1.79.49-2.43.164-.804.38-1.595.65-2.37.12-.34.22-.57.37-.93a9.688 9.688 0 011.35-2.5 2.42 2.42 0 011.65-1c.265.023.521.105.75.24.445.315.761.78.89 1.31a9.27 9.27 0 01.52 2.72c0 .86-.12 3.57-.07 5.09 0 .92.07 1.64.09 1.93l.13 7.72h4.11l.34-13.4.75-19.43a19.59 19.59 0 01.79-4.69c.26-.794.594-1.56 1-2.29a3.27 3.27 0 011-1.16 2.61 2.61 0 01.8-.37 1 1 0 01.43.09 1.46 1.46 0 01.71.88c.262.593.44 1.218.53 1.86.22 2.76.18 3.94.18 3.94-.06 2-.11 3-.12 3.67a145.013 145.013 0 000 6.81c.06 4 .12 11.5.34 24.09h3.87l.7-54.21a23.002 23.002 0 011.27-5.23 8.787 8.787 0 011.52-2.62c.61-.73 1.18-1.3 1.88-1.24a1.65 1.65 0 011 .54 4.09 4.09 0 011 2.52c.164.919.268 1.848.31 2.78.06 1.73 0 3 0 3.14-.14 2.34 0 4.68 0 7 0 2.53 0 8.88.36 25.81.12 5.66.237 11.327.35 17l.54 4.5h3.77v-92a71.234 71.234 0 00-4.11 6.44c-1.35 2.56-1.92 3.09-4.11 6.88-.75 1.31-1.69 3.07-3.55 6.54-1.44 2.71-2.69 5.07-3.69 7L63.58 88.64l-1.86 3.31zM3.05 76.09c-.25-6 0-12 .12-18.07s.25-12.16.27-18.25c.07-12.17-.16-23.75-.62-35.84l-.87-.42c.06 12.11-.26 24.1-.75 36.23C.927 45.8.66 51.86.4 57.92c-.28 6.06-.57 12.17-.28 18.3l1.73 4.33 1.2-4.46zm8.79-67.42c-.31 11-.39 22-.38 33l.07 16.51.06 8.25v6.14a4.7 4.7 0 010 .65c-.002.15-.025.297-.07.44a1.89 1.89 0 01-.14.34c-.053.08-.11.156-.17.23a4.222 4.222 0 01-.55.49l-.48.32-.55.24a4.986 4.986 0 00-.49.26l-1.08.58-2.15 1c-.3.19-2.09 1.19-2.89 1.62 1.93-1.7 2.58-2.34 4.56-3.9l.73-.58.41-.32.41-.28c.232-.15.456-.314.67-.49l.08-.09v-.14c0-.11-.06-.53-.09-.92v-1l-.08-1.89c-.29-20.41-.63-40.84-.2-61.28l2.33.82zm27.51 82.5a.62.62 0 00-.13.84.6.6 0 00.59.19h3.31a.9.9 0 00.57-.11 1.49 1.49 0 00.39-.4c.074-.088.14-.182.2-.28.68-.92 1.16-1.68 1.5-2.2.67-1.06.79-1.31 1.33-2.15.77-1.18 1.09-1.53 2.06-2.88.5-.7 1.2-1.71 2-3l.44-.74c.64-1 .7-1.2 1-1.64.49-.78.63-.83 1.46-2 .42-.59.75-1.08 1-1.4l.17-.27a.6.6 0 00.11-.25.21.21 0 000-.15.26.26 0 00-.17-.1h-1.9l-.51.14h-1c-1.31 1.66-4.12 5.2-6.14 7.84l-2.48 3.24c-.84 1.09-1.17 1.51-1.66 2.18-1.03 1.34-1.72 2.4-2.14 3.14zm15.28-21.66l-.11.16-.12.2a.44.44 0 000 .38.459.459 0 00.34.19h3.2a.7.7 0 00.48-.1 1.07 1.07 0 00.23-.24c.064-.067.121-.14.17-.22.48-.67 1.2-1.71 2-3 1-1.47 1-1.57 1.75-2.74.75-1.17 1.73-2.35 2.85-4.06.32-.48.54-.83.84-1.33.52-.85.56-1 .95-1.56.26-.37.38-.51.7-1 .32-.49.42-.65.53-.85a.372.372 0 00.08-.14.24.24 0 00-.22-.38l-2.43-.09a.42.42 0 00-.31 0 .468.468 0 00-.14.12l-.14.16c-.48.58-1.18 1.41-2 2.44-1 1.21-1.31 1.72-3.57 4.77 0 0-2.43 3.39-4 5.49.1.06-.27.58-1.08 1.8zm13.83-19.24a.569.569 0 00-.08.43.61.61 0 00.36.36h2.43a.87.87 0 00.54-.09.79.79 0 00.34-.36c.24-.4.53-.77.74-1.19l.7-1.21c.1-.17.31-.53 1.27-2l1-1.56c1.05-1.6 1.25-1.8 1.56-2.4.07-.13.27-.51.57-1l.32-.47c.24-.36.36-.51.6-.84l.48-.71h-1.85l-1.91.68a236.93 236.93 0 00-3.44 4.9 157.698 157.698 0 00-3.63 5.46zm11.45-14.98a.27.27 0 00-.07.32.27.27 0 00.28.13h1.23a.41.41 0 00.44-.16.903.903 0 00.14-.19 926.668 926.668 0 013.79-5.65l2-3.16a.13.13 0 000-.16.16.16 0 00-.12 0h-1.42l-.13.18c-.82 1.11-1.64 2.24-2.47 3.4a176.192 176.192 0 00-3.67 5.29zm8.26-11.47a.23.23 0 00-.07.28.2.2 0 00.14.08h.8a.36.36 0 00.21 0 .42.42 0 00.23-.22c.28-.44.64-1 1.09-1.65.45-.65.53-.74.87-1.25.34-.51.69-1 1.1-1.68l.81-1.21a.13.13 0 00.05-.19.12.12 0 00-.14 0h-.81a.24.24 0 00-.11 0c-.06 0-.08.07-.08.08-.62.86-1.24 1.72-1.85 2.61-.77 1-1.51 2.08-2.24 3.15zm6.09-8.22l.19.65 10.17-14.52-1.63 1.56-1.06 1.49c-2.6 3.66-3.6 5-5.41 7.57l-2.26 3.25zM16.93 91.39l-2.85.13h-3.23c-2.627-.04-5.197-.12-7.71-.24l9.58-8.77 8.52-7.82 6.35-5.81 9.33-8.55 11.43-10.48 17.43-16 18.57-17.1-6.72 7.28-10 10.81-9.89 10.73-11.77 12.78-27 29.21-2 4.06 5.43-3.89 5.75-6.45 6.35-7.19 8.39-9.51 14.56-16.54 7.11-8.09 19.27-21.86 4.46-5 6.24-5.71 2.53-2.36L99.78.17l-6.84 4.38-11.13 10.77-17.9 17.24-19.81 19-21 20.11L2.3 91.58l8.3.08h3.42l2.91-.27zM2.04 2.8L3.62.26l23.63.09 38.06-.1 25.05.14-.07 2.24-31.71 2.43L31.9 7.28l-21.26.17 16.48-1.6 34.6-3.23-30.2.19-19.09.07L2.04 2.8z"/></g><defs><clipPath id="clip0"><path fill="#fff" d="M0 0h611.48v92.18H0z"/></clipPath></defs></svg>